<?xml version="1.0" encoding="UTF-8"?>
<svg xmlns="http://www.w3.org/2000/svg" xmlns:xlink="http://www.w3.org/1999/xlink" width="200px" height="200px" viewBox="0 0 200 200" version="1.1">
<g id="surface1">
<path style=" stroke:none;fill-rule:evenodd;fill:rgb(99.607843%,35.294119%,9.019608%);fill-opacity:1;" d="M 5.851562 5.660156 L 194.339844 5.660156 L 194.339844 192.464844 L 5.851562 192.464844 Z M 5.851562 5.660156 "/>
<path style=" stroke:none;fill-rule:nonzero;fill:rgb(0%,0%,0%);fill-opacity:1;" d="M 5.660156 36.894531 C 47.617188 31.164062 97.597656 39.003906 129.855469 70.980469 C 162.117188 102.949219 169.949219 152.757812 164.160156 194.339844 C 164.679688 154.1875 143.273438 118.421875 112.894531 88.320312 C 82.527344 58.210938 46.175781 36.382812 5.660156 36.894531 "/>
<path style=" stroke:none;fill-rule:nonzero;fill:rgb(0%,0%,0%);fill-opacity:1;" d="M 55.066406 89.074219 L 55.066406 101.546875 L 43.503906 101.546875 L 43.503906 131.253906 L 30.378906 131.253906 L 30.378906 101.546875 L 18.824219 101.546875 L 18.824219 89.074219 Z M 55.066406 89.074219 "/>
<path style=" stroke:none;fill-rule:nonzero;fill:rgb(0%,0%,0%);fill-opacity:1;" d="M 48.328125 113.402344 L 67.769531 113.402344 L 72.230469 136.488281 L 72.476562 136.488281 L 76.738281 113.402344 L 96.132812 113.402344 L 96.132812 155.589844 L 84.375 155.589844 L 84.375 122.449219 L 84.082031 122.449219 L 77.324219 155.589844 L 66.394531 155.589844 L 59.835938 122.449219 L 59.492188 122.449219 L 59.492188 155.589844 L 48.328125 155.589844 Z M 48.328125 113.402344 "/>
<path style=" stroke:none;fill-rule:nonzero;fill:rgb(0%,0%,0%);fill-opacity:1;" d="M 114.429688 154.3125 L 114.632812 154.3125 L 122.710938 137.738281 L 137.65625 137.738281 L 126.09375 157.503906 L 138.730469 179.921875 L 123.058594 179.921875 L 114.632812 162.023438 L 114.429688 162.023438 L 114.429688 179.921875 L 101.304688 179.921875 L 101.304688 137.738281 L 114.429688 137.738281 Z M 114.429688 154.3125 "/>
</g>
</svg>
